            1st On Net Org. DVD Hindi-Tamil-Telugu Audio 448kbps

                     Tamil-Telugu Audio Are Separated


     The Myth(2005)1080p BDRip[Hindi(448kbps)-Eng-Tamil-Telugu]AC3-DGrea8 


Summary:-


Martial arts legend Jackie Chan stars as Jack, a world-renowned archaeologist who has begun having mysterious dreams of a past life as a warrior in ancient China...


Cast:-

Jackie Chan...............General Meng Yi / Dr Jack Chan
Hee-seon Kim..............Ok-soo
Tony Leung Ka Fai.........William
Mallika Sherawat..........Samantha
Ken Lo....................Dragon
Rongguang Yu..............Zhao Kuang

Rest of cast listed alphabetically:

Ram Gopal Bajaj.................The Guru
Min-su Choi.....................General Choi (as Choi Min Soo)
Jason Chong.....................Jack / General Meng-Yi (English Revoice)
Kumman Gopakumar................Dasar Policeman
Hiro Hayama.....................Tiger
Jun He..........................Phoenix
Leon Head.......................Dr. Smith
Sasidharan Nair Sajith Kumar....Dasar Guard A
Biju Kumman.....................Dasar Policeman



Video & Audio Info.:-

Director: Stanley Tong
Writers: Hai-shu Li, Stanley Tong
Stars: Jackie Chan, Hee-seon Kim, Tony Leung Ka Fai
Release Date:23 September 2005 (Hong Kong)
Filming Locations: Xi'an, Shaanxi, China
Genres: Action | Adventure | Comedy | Drama | Fantasy


Video
ID : 1
Format : AVC
Format/Info : Advanced Video Codec
Format profile : High@L4.0
Format settings, CABAC : Yes
Format settings, ReFrames : 3 frames
Format settings, GOP : M=4, N=16
Muxing mode : Header stripping
Codec ID : V_MPEG4/ISO/AVC
Duration : 2h 0mn
Bit rate mode : Variable
Bit rate : 1 513 Kbps
Maximum bit rate : 25.0 Mbps
Width : 1 920 pixels
Height : 816 pixels
Display aspect ratio : 2.35:1
Frame rate : 23.976 fps
Color space : YUV
Chroma subsampling : 4:2:0
Bit depth : 8 bits
Scan type : Progressive
Bits/(Pixel*Frame) : 0.040
Stream size : 1.22 GiB (44%)


Audio #1
ID : 2
Format : AC-3
Format/Info : Audio Coding 3
Mode extension : CM (complete main)
Muxing mode : Header stripping
Codec ID : A_AC3
Duration : 2h 0mn
Bit rate mode : Constant
Bit rate : 448 Kbps
Channel(s) : 6 channels
Channel positions : Front: L C R, Side: L R, LFE
Sampling rate : 48.0 KHz
Bit depth : 16 bits
Compression mode : Lossy
Delay relative to video : 900ms
Stream size : 387 MiB (14%)
Language : English

Audio #2
ID : 3
Format : AC-3
Format/Info : Audio Coding 3
Mode extension : CM (complete main)
Muxing mode : Header stripping
Codec ID : A_AC3
Duration : 2h 0mn
Bit rate mode : Constant
Bit rate : 448 Kbps
Channel(s) : 6 channels
Channel positions : Front: L C R, Side: L R, LFE
Sampling rate : 48.0 KHz
Bit depth : 16 bits
Compression mode : Lossy
Delay relative to video : 900ms
Stream size : 387 MiB (14%)
Language : Hindi

Audio #3
ID : 4
Format : AC-3
Format/Info : Audio Coding 3
Mode extension : CM (complete main)
Muxing mode : Header stripping
Codec ID : A_AC3
Duration : 2h 0mn
Bit rate mode : Constant
Bit rate : 448 Kbps
Channel(s) : 6 channels
Channel positions : Front: L C R, Side: L R, LFE
Sampling rate : 48.0 KHz
Bit depth : 16 bits
Compression mode : Lossy
Delay relative to video : 900ms
Stream size : 387 MiB (14%)
Language : Tamil

Audio #4
ID : 5
Format : AC-3
Format/Info : Audio Coding 3
Mode extension : CM (complete main)
Muxing mode : Header stripping
Codec ID : A_AC3
Duration : 2h 0mn
Bit rate mode : Constant
Bit rate : 448 Kbps
Channel(s) : 6 channels
Channel positions : Front: L C R, Side: L R, LFE
Sampling rate : 48.0 KHz
Bit depth : 16 bits
Compression mode : Lossy
Delay relative to video : 900ms
Stream size : 387 MiB (14%)
Language : Telugu

Subtitle Languages : English,Russian



Screen Shoots:-

 
http://www.shotpix.com/images/13756011323257313408.jpg
 
http://www.shotpix.com/images/22026713079600069928.jpg
 
http://www.shotpix.com/images/32740972269902167386.jpg
 
http://www.shotpix.com/images/18147561621635174214.jpg
 
http://www.shotpix.com/images/17815740016860588317.jpg


Note:--

 Check The Sample Video In This Torrent			